<mxfile host="Electron" agent="Mozilla/5.0 (Windows NT 10.0; Win64; x64) AppleWebKit/537.36 (KHTML, like Gecko) draw.io/24.7.5 Chrome/126.0.6478.183 Electron/31.3.0 Safari/537.36" version="24.7.5">
  <diagram name="Page-1" id="zYkQ7ycPL-iNdv8deyL2">
    <mxGraphModel dx="712" dy="828" grid="1" gridSize="10" guides="1" tooltips="1" connect="1" arrows="1" fold="1" page="1" pageScale="1" pageWidth="827" pageHeight="1169" background="none" math="0" shadow="0">
      <root>
        <mxCell id="0" />
        <mxCell id="1" parent="0" />
        <mxCell id="FdAXJDtFcCwPDoSCl_Y0-1" value="game window" style="swimlane;whiteSpace=wrap;html=1;startSize=20;" parent="1" vertex="1">
          <mxGeometry x="470" y="10" width="350" height="320" as="geometry" />
        </mxCell>
        <mxCell id="FdAXJDtFcCwPDoSCl_Y0-2" value="" style="rounded=0;whiteSpace=wrap;html=1;fillColor=#008a00;strokeColor=#005700;fontColor=#ffffff;" parent="FdAXJDtFcCwPDoSCl_Y0-1" vertex="1">
          <mxGeometry y="20" width="350" height="300" as="geometry" />
        </mxCell>
        <mxCell id="FdAXJDtFcCwPDoSCl_Y0-3" value="" style="rounded=0;whiteSpace=wrap;html=1;fillColor=#e1d5e7;strokeColor=#9673a6;" parent="FdAXJDtFcCwPDoSCl_Y0-1" vertex="1">
          <mxGeometry x="15" y="70" width="30" height="40" as="geometry" />
        </mxCell>
        <mxCell id="FdAXJDtFcCwPDoSCl_Y0-4" value="" style="rounded=0;whiteSpace=wrap;html=1;fillColor=#e1d5e7;strokeColor=#9673a6;" parent="FdAXJDtFcCwPDoSCl_Y0-1" vertex="1">
          <mxGeometry x="55" y="70" width="30" height="40" as="geometry" />
        </mxCell>
        <mxCell id="FdAXJDtFcCwPDoSCl_Y0-8" value="" style="rounded=0;whiteSpace=wrap;html=1;fillColor=#d5e8d4;strokeColor=#82b366;" parent="FdAXJDtFcCwPDoSCl_Y0-1" vertex="1">
          <mxGeometry x="305" y="70" width="30" height="40" as="geometry" />
        </mxCell>
        <mxCell id="FdAXJDtFcCwPDoSCl_Y0-7" value="" style="rounded=0;whiteSpace=wrap;html=1;fillColor=#d5e8d4;strokeColor=#82b366;" parent="FdAXJDtFcCwPDoSCl_Y0-1" vertex="1">
          <mxGeometry x="265" y="70" width="30" height="40" as="geometry" />
        </mxCell>
        <mxCell id="FdAXJDtFcCwPDoSCl_Y0-6" value="" style="rounded=0;whiteSpace=wrap;html=1;fillColor=#d5e8d4;strokeColor=#82b366;" parent="FdAXJDtFcCwPDoSCl_Y0-1" vertex="1">
          <mxGeometry x="225" y="70" width="30" height="40" as="geometry" />
        </mxCell>
        <mxCell id="FdAXJDtFcCwPDoSCl_Y0-5" value="" style="rounded=0;whiteSpace=wrap;html=1;fillColor=#d5e8d4;strokeColor=#82b366;" parent="FdAXJDtFcCwPDoSCl_Y0-1" vertex="1">
          <mxGeometry x="185" y="70" width="30" height="40" as="geometry" />
        </mxCell>
        <mxCell id="FdAXJDtFcCwPDoSCl_Y0-15" value="" style="rounded=0;whiteSpace=wrap;html=1;fillColor=#dae8fc;strokeColor=#6c8ebf;" parent="FdAXJDtFcCwPDoSCl_Y0-1" vertex="1">
          <mxGeometry x="305" y="130" width="30" height="40" as="geometry" />
        </mxCell>
        <mxCell id="FdAXJDtFcCwPDoSCl_Y0-14" value="" style="rounded=0;whiteSpace=wrap;html=1;fillColor=#dae8fc;strokeColor=#6c8ebf;" parent="FdAXJDtFcCwPDoSCl_Y0-1" vertex="1">
          <mxGeometry x="265" y="130" width="30" height="40" as="geometry" />
        </mxCell>
        <mxCell id="FdAXJDtFcCwPDoSCl_Y0-13" value="" style="rounded=0;whiteSpace=wrap;html=1;fillColor=#dae8fc;strokeColor=#6c8ebf;" parent="FdAXJDtFcCwPDoSCl_Y0-1" vertex="1">
          <mxGeometry x="225" y="130" width="30" height="40" as="geometry" />
        </mxCell>
        <mxCell id="FdAXJDtFcCwPDoSCl_Y0-12" value="" style="rounded=0;whiteSpace=wrap;html=1;fillColor=#dae8fc;strokeColor=#6c8ebf;" parent="FdAXJDtFcCwPDoSCl_Y0-1" vertex="1">
          <mxGeometry x="185" y="130" width="30" height="40" as="geometry" />
        </mxCell>
        <mxCell id="FdAXJDtFcCwPDoSCl_Y0-11" value="" style="rounded=0;whiteSpace=wrap;html=1;fillColor=#dae8fc;strokeColor=#6c8ebf;" parent="FdAXJDtFcCwPDoSCl_Y0-1" vertex="1">
          <mxGeometry x="65" y="130" width="30" height="40" as="geometry" />
        </mxCell>
        <mxCell id="FdAXJDtFcCwPDoSCl_Y0-10" value="" style="rounded=0;whiteSpace=wrap;html=1;fillColor=#dae8fc;strokeColor=#6c8ebf;" parent="FdAXJDtFcCwPDoSCl_Y0-1" vertex="1">
          <mxGeometry x="145" y="130" width="30" height="40" as="geometry" />
        </mxCell>
        <mxCell id="FdAXJDtFcCwPDoSCl_Y0-9" value="" style="rounded=0;whiteSpace=wrap;html=1;fillColor=#dae8fc;strokeColor=#6c8ebf;" parent="FdAXJDtFcCwPDoSCl_Y0-1" vertex="1">
          <mxGeometry x="105" y="130" width="30" height="40" as="geometry" />
        </mxCell>
        <mxCell id="FdAXJDtFcCwPDoSCl_Y0-16" value="&lt;div style=&quot;&quot;&gt;&lt;span style=&quot;background-color: initial;&quot;&gt;user: Mr.X&lt;span style=&quot;white-space: pre;&quot;&gt;&#x9;&lt;/span&gt;&lt;span style=&quot;white-space: pre;&quot;&gt;&#x9;&lt;/span&gt;&lt;span style=&quot;white-space: pre;&quot;&gt;&#x9;&lt;/span&gt;&lt;span style=&quot;white-space: pre;&quot;&gt;&#x9;&lt;/span&gt;&lt;span style=&quot;white-space: pre;&quot;&gt;&#x9;&lt;/span&gt;Score: 0&lt;span style=&quot;white-space: pre;&quot;&gt;&#x9;&lt;/span&gt;&lt;span style=&quot;white-space: pre;&quot;&gt;&#x9;&lt;/span&gt;HS: XXXXX&lt;/span&gt;&lt;/div&gt;" style="rounded=0;whiteSpace=wrap;html=1;align=left;fillColor=#fff2cc;strokeColor=#d6b656;" parent="FdAXJDtFcCwPDoSCl_Y0-1" vertex="1">
          <mxGeometry y="40" width="350" height="20" as="geometry" />
        </mxCell>
        <mxCell id="FdAXJDtFcCwPDoSCl_Y0-17" value="&lt;div style=&quot;&quot;&gt;new game&lt;span style=&quot;white-space: pre;&quot;&gt;&#x9;&lt;/span&gt;&lt;span style=&quot;white-space: pre;&quot;&gt;&#x9;&lt;/span&gt;&lt;span style=&quot;white-space: pre;&quot;&gt;&#x9;&lt;/span&gt;&lt;span style=&quot;white-space: pre;&quot;&gt;&#x9;&lt;/span&gt;&lt;span style=&quot;white-space: pre;&quot;&gt;&#x9;&lt;/span&gt;&lt;span style=&quot;white-space: pre;&quot;&gt;&#x9;&lt;/span&gt;&lt;span style=&quot;white-space: pre;&quot;&gt;&#x9;view&lt;/span&gt;&amp;nbsp;&lt;span style=&quot;white-space: pre;&quot;&gt;leaderboard&lt;/span&gt;&lt;/div&gt;" style="rounded=0;whiteSpace=wrap;html=1;align=left;" parent="FdAXJDtFcCwPDoSCl_Y0-1" vertex="1">
          <mxGeometry y="20" width="350" height="20" as="geometry" />
        </mxCell>
        <mxCell id="FdAXJDtFcCwPDoSCl_Y0-18" value="" style="rounded=0;whiteSpace=wrap;html=1;fillColor=#e51400;fontColor=#ffffff;strokeColor=#B20000;" parent="FdAXJDtFcCwPDoSCl_Y0-1" vertex="1">
          <mxGeometry x="330" width="20" height="20" as="geometry" />
        </mxCell>
        <mxCell id="FdAXJDtFcCwPDoSCl_Y0-19" value="" style="line;strokeWidth=2;html=1;rotation=45;" parent="FdAXJDtFcCwPDoSCl_Y0-1" vertex="1">
          <mxGeometry x="330" y="5" width="20" height="10" as="geometry" />
        </mxCell>
        <mxCell id="FdAXJDtFcCwPDoSCl_Y0-20" value="" style="line;strokeWidth=2;html=1;rotation=-225;" parent="FdAXJDtFcCwPDoSCl_Y0-1" vertex="1">
          <mxGeometry x="330" y="5" width="20" height="10" as="geometry" />
        </mxCell>
        <mxCell id="FdAXJDtFcCwPDoSCl_Y0-23" value="HUB window" style="swimlane;whiteSpace=wrap;html=1;startSize=20;" parent="1" vertex="1">
          <mxGeometry x="40" y="10" width="350" height="320" as="geometry" />
        </mxCell>
        <mxCell id="FdAXJDtFcCwPDoSCl_Y0-24" value="" style="rounded=0;whiteSpace=wrap;html=1;fillColor=#008a00;strokeColor=#005700;fontColor=#ffffff;" parent="FdAXJDtFcCwPDoSCl_Y0-23" vertex="1">
          <mxGeometry y="20" width="350" height="300" as="geometry" />
        </mxCell>
        <mxCell id="FdAXJDtFcCwPDoSCl_Y0-40" value="" style="rounded=0;whiteSpace=wrap;html=1;fillColor=#e51400;fontColor=#ffffff;strokeColor=#B20000;" parent="FdAXJDtFcCwPDoSCl_Y0-23" vertex="1">
          <mxGeometry x="330" width="20" height="20" as="geometry" />
        </mxCell>
        <mxCell id="FdAXJDtFcCwPDoSCl_Y0-41" value="" style="line;strokeWidth=2;html=1;rotation=45;" parent="FdAXJDtFcCwPDoSCl_Y0-23" vertex="1">
          <mxGeometry x="330" y="5" width="20" height="10" as="geometry" />
        </mxCell>
        <mxCell id="FdAXJDtFcCwPDoSCl_Y0-42" value="" style="line;strokeWidth=2;html=1;rotation=-225;" parent="FdAXJDtFcCwPDoSCl_Y0-23" vertex="1">
          <mxGeometry x="330" y="5" width="20" height="10" as="geometry" />
        </mxCell>
        <mxCell id="FdAXJDtFcCwPDoSCl_Y0-43" value="" style="rounded=0;whiteSpace=wrap;html=1;fillColor=#e1d5e7;strokeColor=#9673a6;" parent="FdAXJDtFcCwPDoSCl_Y0-23" vertex="1">
          <mxGeometry x="140" y="75" width="30" height="40" as="geometry" />
        </mxCell>
        <mxCell id="FdAXJDtFcCwPDoSCl_Y0-46" value="" style="rounded=0;whiteSpace=wrap;html=1;fillColor=#e1d5e7;strokeColor=#9673a6;" parent="FdAXJDtFcCwPDoSCl_Y0-23" vertex="1">
          <mxGeometry x="180" y="75" width="30" height="40" as="geometry" />
        </mxCell>
        <mxCell id="FdAXJDtFcCwPDoSCl_Y0-45" value="" style="rounded=0;whiteSpace=wrap;html=1;fillColor=#e1d5e7;strokeColor=#9673a6;" parent="FdAXJDtFcCwPDoSCl_Y0-23" vertex="1">
          <mxGeometry x="220" y="75" width="30" height="40" as="geometry" />
        </mxCell>
        <mxCell id="FdAXJDtFcCwPDoSCl_Y0-44" value="" style="rounded=0;whiteSpace=wrap;html=1;fillColor=#e1d5e7;strokeColor=#9673a6;" parent="FdAXJDtFcCwPDoSCl_Y0-23" vertex="1">
          <mxGeometry x="100" y="75" width="30" height="40" as="geometry" />
        </mxCell>
        <mxCell id="FdAXJDtFcCwPDoSCl_Y0-47" value="&lt;font style=&quot;font-size: 24px;&quot;&gt;PLAY&lt;/font&gt;&lt;div&gt;&lt;font style=&quot;font-size: 24px;&quot;&gt;&lt;br&gt;&lt;/font&gt;&lt;/div&gt;&lt;div&gt;&lt;span style=&quot;font-size: 24px;&quot;&gt;SCORES&lt;/span&gt;&lt;/div&gt;" style="text;html=1;align=center;verticalAlign=middle;whiteSpace=wrap;rounded=0;" parent="FdAXJDtFcCwPDoSCl_Y0-23" vertex="1">
          <mxGeometry x="60" y="115" width="230" height="130" as="geometry" />
        </mxCell>
        <mxCell id="FdAXJDtFcCwPDoSCl_Y0-48" value="Leaderboard window" style="swimlane;whiteSpace=wrap;html=1;startSize=20;" parent="1" vertex="1">
          <mxGeometry x="460" y="400" width="350" height="320" as="geometry">
            <mxRectangle x="260" y="370" width="150" height="30" as="alternateBounds" />
          </mxGeometry>
        </mxCell>
        <mxCell id="FdAXJDtFcCwPDoSCl_Y0-49" value="" style="rounded=0;whiteSpace=wrap;html=1;fillColor=#008a00;strokeColor=#005700;fontColor=#ffffff;" parent="FdAXJDtFcCwPDoSCl_Y0-48" vertex="1">
          <mxGeometry y="20" width="350" height="300" as="geometry" />
        </mxCell>
        <mxCell id="FdAXJDtFcCwPDoSCl_Y0-50" value="" style="rounded=0;whiteSpace=wrap;html=1;fillColor=#e51400;fontColor=#ffffff;strokeColor=#B20000;" parent="FdAXJDtFcCwPDoSCl_Y0-48" vertex="1">
          <mxGeometry x="330" width="20" height="20" as="geometry" />
        </mxCell>
        <mxCell id="FdAXJDtFcCwPDoSCl_Y0-51" value="" style="line;strokeWidth=2;html=1;rotation=45;" parent="FdAXJDtFcCwPDoSCl_Y0-48" vertex="1">
          <mxGeometry x="330" y="5" width="20" height="10" as="geometry" />
        </mxCell>
        <mxCell id="FdAXJDtFcCwPDoSCl_Y0-52" value="" style="line;strokeWidth=2;html=1;rotation=-225;" parent="FdAXJDtFcCwPDoSCl_Y0-48" vertex="1">
          <mxGeometry x="330" y="5" width="20" height="10" as="geometry" />
        </mxCell>
        <mxCell id="FdAXJDtFcCwPDoSCl_Y0-70" value="" style="group;fillColor=#d5e8d4;strokeColor=#82b366;" parent="FdAXJDtFcCwPDoSCl_Y0-48" vertex="1" connectable="0">
          <mxGeometry x="50" y="50" width="250" height="210" as="geometry" />
        </mxCell>
        <mxCell id="FdAXJDtFcCwPDoSCl_Y0-58" value="name" style="swimlane;fontStyle=0;childLayout=stackLayout;horizontal=1;startSize=30;horizontalStack=0;resizeParent=1;resizeParentMax=0;resizeLast=0;collapsible=1;marginBottom=0;whiteSpace=wrap;html=1;fillColor=#d5e8d4;strokeColor=#82b366;" parent="FdAXJDtFcCwPDoSCl_Y0-70" vertex="1">
          <mxGeometry width="100" height="187.5" as="geometry" />
        </mxCell>
        <mxCell id="FdAXJDtFcCwPDoSCl_Y0-59" value="name 1" style="text;strokeColor=none;fillColor=none;align=left;verticalAlign=middle;spacingLeft=4;spacingRight=4;overflow=hidden;points=[[0,0.5],[1,0.5]];portConstraint=eastwest;rotatable=0;whiteSpace=wrap;html=1;" parent="FdAXJDtFcCwPDoSCl_Y0-58" vertex="1">
          <mxGeometry y="30" width="100" height="52.5" as="geometry" />
        </mxCell>
        <mxCell id="FdAXJDtFcCwPDoSCl_Y0-60" value="name 2" style="text;strokeColor=none;fillColor=none;align=left;verticalAlign=middle;spacingLeft=4;spacingRight=4;overflow=hidden;points=[[0,0.5],[1,0.5]];portConstraint=eastwest;rotatable=0;whiteSpace=wrap;html=1;" parent="FdAXJDtFcCwPDoSCl_Y0-58" vertex="1">
          <mxGeometry y="82.5" width="100" height="52.5" as="geometry" />
        </mxCell>
        <mxCell id="FdAXJDtFcCwPDoSCl_Y0-61" value="name 3" style="text;strokeColor=none;fillColor=none;align=left;verticalAlign=middle;spacingLeft=4;spacingRight=4;overflow=hidden;points=[[0,0.5],[1,0.5]];portConstraint=eastwest;rotatable=0;whiteSpace=wrap;html=1;" parent="FdAXJDtFcCwPDoSCl_Y0-58" vertex="1">
          <mxGeometry y="135" width="100" height="52.5" as="geometry" />
        </mxCell>
        <mxCell id="FdAXJDtFcCwPDoSCl_Y0-66" value="score" style="swimlane;fontStyle=0;childLayout=stackLayout;horizontal=1;startSize=30;horizontalStack=0;resizeParent=1;resizeParentMax=0;resizeLast=0;collapsible=1;marginBottom=0;whiteSpace=wrap;html=1;fillColor=#d5e8d4;strokeColor=#82b366;" parent="FdAXJDtFcCwPDoSCl_Y0-70" vertex="1">
          <mxGeometry x="153.33" width="96.67" height="187.5" as="geometry" />
        </mxCell>
        <mxCell id="FdAXJDtFcCwPDoSCl_Y0-67" value="score 1" style="text;strokeColor=none;fillColor=none;align=right;verticalAlign=middle;spacingLeft=4;spacingRight=4;overflow=hidden;points=[[0,0.5],[1,0.5]];portConstraint=eastwest;rotatable=0;whiteSpace=wrap;html=1;" parent="FdAXJDtFcCwPDoSCl_Y0-66" vertex="1">
          <mxGeometry y="30" width="96.67" height="52.5" as="geometry" />
        </mxCell>
        <mxCell id="FdAXJDtFcCwPDoSCl_Y0-68" value="score 2" style="text;strokeColor=none;fillColor=none;align=right;verticalAlign=middle;spacingLeft=4;spacingRight=4;overflow=hidden;points=[[0,0.5],[1,0.5]];portConstraint=eastwest;rotatable=0;whiteSpace=wrap;html=1;" parent="FdAXJDtFcCwPDoSCl_Y0-66" vertex="1">
          <mxGeometry y="82.5" width="96.67" height="52.5" as="geometry" />
        </mxCell>
        <mxCell id="FdAXJDtFcCwPDoSCl_Y0-69" value="score 3" style="text;strokeColor=none;fillColor=none;align=right;verticalAlign=middle;spacingLeft=4;spacingRight=4;overflow=hidden;points=[[0,0.5],[1,0.5]];portConstraint=eastwest;rotatable=0;whiteSpace=wrap;html=1;" parent="FdAXJDtFcCwPDoSCl_Y0-66" vertex="1">
          <mxGeometry y="135" width="96.67" height="52.5" as="geometry" />
        </mxCell>
        <mxCell id="FdAXJDtFcCwPDoSCl_Y0-62" value="date" style="swimlane;fontStyle=0;childLayout=stackLayout;horizontal=1;startSize=30;horizontalStack=0;resizeParent=1;resizeParentMax=0;resizeLast=0;collapsible=1;marginBottom=0;whiteSpace=wrap;html=1;fillColor=#d5e8d4;strokeColor=#82b366;" parent="FdAXJDtFcCwPDoSCl_Y0-70" vertex="1">
          <mxGeometry x="100" width="53.33" height="187.5" as="geometry" />
        </mxCell>
        <mxCell id="FdAXJDtFcCwPDoSCl_Y0-63" value="date 1" style="text;strokeColor=none;fillColor=none;align=center;verticalAlign=middle;spacingLeft=4;spacingRight=4;overflow=hidden;points=[[0,0.5],[1,0.5]];portConstraint=eastwest;rotatable=0;whiteSpace=wrap;html=1;" parent="FdAXJDtFcCwPDoSCl_Y0-62" vertex="1">
          <mxGeometry y="30" width="53.33" height="52.5" as="geometry" />
        </mxCell>
        <mxCell id="FdAXJDtFcCwPDoSCl_Y0-64" value="date 2" style="text;strokeColor=none;fillColor=none;align=center;verticalAlign=middle;spacingLeft=4;spacingRight=4;overflow=hidden;points=[[0,0.5],[1,0.5]];portConstraint=eastwest;rotatable=0;whiteSpace=wrap;html=1;" parent="FdAXJDtFcCwPDoSCl_Y0-62" vertex="1">
          <mxGeometry y="82.5" width="53.33" height="52.5" as="geometry" />
        </mxCell>
        <mxCell id="FdAXJDtFcCwPDoSCl_Y0-65" value="date 3" style="text;strokeColor=none;fillColor=none;align=center;verticalAlign=middle;spacingLeft=4;spacingRight=4;overflow=hidden;points=[[0,0.5],[1,0.5]];portConstraint=eastwest;rotatable=0;whiteSpace=wrap;html=1;" parent="FdAXJDtFcCwPDoSCl_Y0-62" vertex="1">
          <mxGeometry y="135" width="53.33" height="52.5" as="geometry" />
        </mxCell>
        <mxCell id="OcC8gOZ4PIjLcGPV9Bdj-23" value="&lt;div style=&quot;&quot;&gt;&lt;span style=&quot;white-space: pre;&quot;&gt;&#x9;&lt;/span&gt;new game&lt;/div&gt;" style="rounded=0;whiteSpace=wrap;html=1;align=left;" parent="FdAXJDtFcCwPDoSCl_Y0-48" vertex="1">
          <mxGeometry y="20" width="350" height="20" as="geometry" />
        </mxCell>
        <mxCell id="OcC8gOZ4PIjLcGPV9Bdj-3" value="login window" style="swimlane;whiteSpace=wrap;html=1;startSize=20;" parent="1" vertex="1">
          <mxGeometry x="40" y="400" width="350" height="190" as="geometry" />
        </mxCell>
        <mxCell id="OcC8gOZ4PIjLcGPV9Bdj-4" value="" style="rounded=0;whiteSpace=wrap;html=1;fillColor=#008a00;strokeColor=#005700;fontColor=#ffffff;" parent="OcC8gOZ4PIjLcGPV9Bdj-3" vertex="1">
          <mxGeometry y="20" width="350" height="170" as="geometry" />
        </mxCell>
        <mxCell id="OcC8gOZ4PIjLcGPV9Bdj-5" value="" style="rounded=0;whiteSpace=wrap;html=1;fillColor=#e51400;fontColor=#ffffff;strokeColor=#B20000;" parent="OcC8gOZ4PIjLcGPV9Bdj-3" vertex="1">
          <mxGeometry x="330" width="20" height="20" as="geometry" />
        </mxCell>
        <mxCell id="OcC8gOZ4PIjLcGPV9Bdj-6" value="" style="line;strokeWidth=2;html=1;rotation=45;" parent="OcC8gOZ4PIjLcGPV9Bdj-3" vertex="1">
          <mxGeometry x="330" y="5" width="20" height="10" as="geometry" />
        </mxCell>
        <mxCell id="OcC8gOZ4PIjLcGPV9Bdj-7" value="" style="line;strokeWidth=2;html=1;rotation=-225;" parent="OcC8gOZ4PIjLcGPV9Bdj-3" vertex="1">
          <mxGeometry x="330" y="5" width="20" height="10" as="geometry" />
        </mxCell>
        <mxCell id="OcC8gOZ4PIjLcGPV9Bdj-16" value="" style="rounded=0;whiteSpace=wrap;html=1;" parent="OcC8gOZ4PIjLcGPV9Bdj-3" vertex="1">
          <mxGeometry x="150" y="95" width="110" height="20" as="geometry" />
        </mxCell>
        <mxCell id="OcC8gOZ4PIjLcGPV9Bdj-19" value="user name :" style="text;html=1;align=center;verticalAlign=middle;whiteSpace=wrap;rounded=0;" parent="OcC8gOZ4PIjLcGPV9Bdj-3" vertex="1">
          <mxGeometry x="70" y="90" width="70" height="30" as="geometry" />
        </mxCell>
        <mxCell id="OcC8gOZ4PIjLcGPV9Bdj-20" value="" style="endArrow=classic;html=1;rounded=0;" parent="1" edge="1">
          <mxGeometry width="50" height="50" relative="1" as="geometry">
            <mxPoint x="220" y="350" as="sourcePoint" />
            <mxPoint x="220" y="380" as="targetPoint" />
            <Array as="points">
              <mxPoint x="220" y="370" />
            </Array>
          </mxGeometry>
        </mxCell>
        <mxCell id="OcC8gOZ4PIjLcGPV9Bdj-21" value="" style="endArrow=classic;html=1;rounded=0;" parent="1" edge="1">
          <mxGeometry width="50" height="50" relative="1" as="geometry">
            <mxPoint x="640" y="340" as="sourcePoint" />
            <mxPoint x="640" y="390" as="targetPoint" />
            <Array as="points" />
          </mxGeometry>
        </mxCell>
        <mxCell id="OcC8gOZ4PIjLcGPV9Bdj-22" value="" style="endArrow=classic;html=1;rounded=0;" parent="1" edge="1">
          <mxGeometry width="50" height="50" relative="1" as="geometry">
            <mxPoint x="400" y="390" as="sourcePoint" />
            <mxPoint x="460" y="340" as="targetPoint" />
            <Array as="points" />
          </mxGeometry>
        </mxCell>
        <mxCell id="GAXd_vKDdMIMoaxt6png-1" value="" style="endArrow=classic;html=1;rounded=0;" edge="1" parent="1">
          <mxGeometry width="50" height="50" relative="1" as="geometry">
            <mxPoint x="670.41" y="360" as="sourcePoint" />
            <mxPoint x="670" y="340" as="targetPoint" />
            <Array as="points">
              <mxPoint x="670" y="390" />
            </Array>
          </mxGeometry>
        </mxCell>
      </root>
    </mxGraphModel>
  </diagram>
</mxfile>
